<svg width="304" height="65" viewBox="0 0 304 65" fill="none" xmlns="http://www.w3.org/2000/svg">
<path d="M56.5 32.5C41.5 -2.5 1.5 -2.5 1.5 32.5C1.5 67.5 41.5 67.5 56.5 32.5ZM56.5 32.5C71.5 67.5 111.5 67.5 111.5 32.5C111.5 -2.5 71.5 -2.5 56.5 32.5Z" stroke="url(#paint0_linear_37_368)" stroke-width="3" stroke-linecap="round"/>
<path d="M21.5 38.5C24.8137 38.5 27.5 35.8137 27.5 32.5C27.5 29.1863 24.8137 26.5 21.5 26.5C18.1863 26.5 15.5 29.1863 15.5 32.5C15.5 35.8137 18.1863 38.5 21.5 38.5Z" fill="#F9D77A"/>
<path d="M91.5 38.5C94.8137 38.5 97.5 35.8137 97.5 32.5C97.5 29.1863 94.8137 26.5 91.5 26.5C88.1863 26.5 85.5 29.1863 85.5 32.5C85.5 35.8137 88.1863 38.5 91.5 38.5Z" fill="#F9D77A"/>
<path opacity="0.7" d="M56.5 5C57.8807 5 59 3.88071 59 2.5C59 1.11929 57.8807 0 56.5 0C55.1193 0 54 1.11929 54 2.5C54 3.88071 55.1193 5 56.5 5Z" fill="#F9D77A"/>
<path opacity="0.7" d="M56.5 65C57.8807 65 59 63.8807 59 62.5C59 61.1193 57.8807 60 56.5 60C55.1193 60 54 61.1193 54 62.5C54 63.8807 55.1193 65 56.5 65Z" fill="#F9D77A"/>
<path d="M137.374 19.75C137.414 19.75 137.434 19.81 137.434 19.93C137.434 20.05 137.414 20.11 137.374 20.11C136.734 20.11 136.254 20.17 135.934 20.29C135.634 20.41 135.424 20.62 135.304 20.92C135.204 21.22 135.154 21.66 135.154 22.24V39.34C135.154 41.26 134.704 42.82 133.804 44.02C132.904 45.22 131.564 45.82 129.784 45.82C129.104 45.82 128.574 45.7 128.194 45.46C127.794 45.22 127.594 44.91 127.594 44.53C127.594 44.23 127.684 43.99 127.864 43.81C128.044 43.63 128.294 43.54 128.614 43.54C128.974 43.54 129.244 43.62 129.424 43.78C129.624 43.94 129.784 44.13 129.904 44.35C130.044 44.59 130.194 44.79 130.354 44.95C130.514 45.13 130.744 45.22 131.044 45.22C131.744 45.22 132.274 44.81 132.634 43.99C132.994 43.19 133.174 41.85 133.174 39.97V22.18C133.174 21.6 133.104 21.17 132.964 20.89C132.824 20.59 132.544 20.39 132.124 20.29C131.704 20.17 131.074 20.11 130.234 20.11C130.194 20.11 130.174 20.05 130.174 19.93C130.174 19.81 130.194 19.75 130.234 19.75C130.814 19.75 131.434 19.77 132.094 19.81C132.754 19.83 133.434 19.84 134.134 19.84C134.794 19.84 135.384 19.83 135.904 19.81C136.444 19.77 136.934 19.75 137.374 19.75Z" fill="#F5E6CF"/>
<path d="M147.672 29.86L152.172 22.96C152.752 22.02 152.962 21.31 152.802 20.83C152.642 20.35 152.112 20.11 151.212 20.11C151.172 20.11 151.152 20.05 151.152 19.93C151.152 19.81 151.172 19.75 151.212 19.75C151.752 19.75 152.272 19.77 152.772 19.81C153.272 19.83 153.922 19.84 154.722 19.84C155.222 19.84 155.622 19.83 155.922 19.81C156.242 19.77 156.622 19.75 157.062 19.75C157.102 19.75 157.122 19.81 157.122 19.93C157.122 20.05 157.102 20.11 157.062 20.11C156.582 20.11 156.092 20.23 155.592 20.47C155.092 20.71 154.612 21.05 154.152 21.49C153.712 21.93 153.292 22.46 152.892 23.08L148.182 30.31L147.672 29.86ZM147.342 30.34L141.942 22.42C141.382 21.56 140.852 20.96 140.352 20.62C139.852 20.28 139.272 20.11 138.612 20.11C138.552 20.11 138.522 20.05 138.522 19.93C138.522 19.81 138.552 19.75 138.612 19.75C138.952 19.75 139.312 19.77 139.692 19.81C140.072 19.83 140.422 19.84 140.742 19.84C141.282 19.84 141.802 19.84 142.302 19.84C142.822 19.82 143.302 19.8 143.742 19.78C144.202 19.76 144.602 19.75 144.942 19.75C144.982 19.75 145.002 19.81 145.002 19.93C145.002 20.05 144.982 20.11 144.942 20.11C144.162 20.11 143.672 20.22 143.472 20.44C143.292 20.66 143.362 21 143.682 21.46L148.812 28.99L147.342 30.34ZM146.922 29.2L148.872 28.93V36.07C148.872 36.65 148.932 37.09 149.052 37.39C149.172 37.69 149.412 37.89 149.772 37.99C150.132 38.09 150.682 38.14 151.422 38.14C151.482 38.14 151.512 38.2 151.512 38.32C151.512 38.44 151.482 38.5 151.422 38.5C150.942 38.5 150.402 38.49 149.802 38.47C149.222 38.45 148.582 38.44 147.882 38.44C147.222 38.44 146.582 38.45 145.962 38.47C145.342 38.49 144.802 38.5 144.342 38.5C144.282 38.5 144.252 38.44 144.252 38.32C144.252 38.2 144.282 38.14 144.342 38.14C145.062 38.14 145.612 38.09 145.992 37.99C146.372 37.89 146.622 37.69 146.742 37.39C146.862 37.09 146.922 36.65 146.922 36.07V29.2Z" fill="#F5E6CF"/>
<path d="M167.024 38.86C165.584 38.86 164.274 38.61 163.094 38.11C161.934 37.59 160.934 36.88 160.094 35.98C159.274 35.08 158.634 34.05 158.174 32.89C157.734 31.71 157.514 30.46 157.514 29.14C157.514 27.52 157.824 26.1 158.444 24.88C159.084 23.66 159.924 22.65 160.964 21.85C162.004 21.03 163.144 20.42 164.384 20.02C165.624 19.62 166.854 19.42 168.074 19.42C169.554 19.42 170.874 19.69 172.034 20.23C173.214 20.75 174.214 21.46 175.034 22.36C175.854 23.26 176.474 24.28 176.894 25.42C177.334 26.56 177.554 27.73 177.554 28.93C177.554 30.33 177.274 31.63 176.714 32.83C176.154 34.03 175.384 35.08 174.404 35.98C173.444 36.88 172.324 37.59 171.044 38.11C169.784 38.61 168.444 38.86 167.024 38.86ZM168.074 38.23C169.434 38.23 170.654 37.91 171.734 37.27C172.814 36.61 173.674 35.65 174.314 34.39C174.954 33.13 175.274 31.59 175.274 29.77C175.274 27.89 174.924 26.23 174.224 24.79C173.544 23.33 172.564 22.19 171.284 21.37C170.024 20.53 168.534 20.11 166.814 20.11C164.594 20.11 162.864 20.83 161.624 22.27C160.404 23.69 159.794 25.63 159.794 28.09C159.794 29.51 159.984 30.84 160.364 32.08C160.764 33.3 161.334 34.38 162.074 35.32C162.814 36.24 163.694 36.96 164.714 37.48C165.734 37.98 166.854 38.23 168.074 38.23Z" fill="#F5E6CF"/>
<path d="M184.067 20.29C182.827 20.29 181.887 20.61 181.247 21.25C180.627 21.89 180.177 22.98 179.897 24.52C179.897 24.56 179.837 24.58 179.717 24.58C179.617 24.58 179.567 24.56 179.567 24.52C179.607 24.26 179.647 23.9 179.687 23.44C179.727 22.96 179.767 22.45 179.807 21.91C179.867 21.37 179.907 20.85 179.927 20.35C179.967 19.83 179.987 19.41 179.987 19.09C179.987 18.99 180.037 18.94 180.137 18.94C180.257 18.94 180.317 18.99 180.317 19.09C180.317 19.29 180.417 19.44 180.617 19.54C180.817 19.62 181.037 19.68 181.277 19.72C181.537 19.74 181.757 19.75 181.937 19.75C183.657 19.81 185.667 19.84 187.967 19.84C189.387 19.84 190.507 19.83 191.327 19.81C192.167 19.77 192.977 19.75 193.757 19.75C194.437 19.75 194.957 19.71 195.317 19.63C195.697 19.53 195.937 19.32 196.037 19C196.057 18.92 196.117 18.88 196.217 18.88C196.317 18.88 196.367 18.92 196.367 19C196.347 19.3 196.317 19.71 196.277 20.23C196.237 20.75 196.207 21.29 196.187 21.85C196.167 22.41 196.147 22.93 196.127 23.41C196.107 23.89 196.097 24.26 196.097 24.52C196.097 24.56 196.037 24.58 195.917 24.58C195.797 24.58 195.737 24.56 195.737 24.52C195.677 22.96 195.357 21.87 194.777 21.25C194.197 20.61 193.237 20.29 191.897 20.29C191.057 20.29 190.427 20.33 190.007 20.41C189.587 20.49 189.307 20.67 189.167 20.95C189.047 21.21 188.987 21.64 188.987 22.24V36.07C188.987 36.65 189.057 37.09 189.197 37.39C189.337 37.69 189.607 37.89 190.007 37.99C190.427 38.09 191.057 38.14 191.897 38.14C191.957 38.14 191.987 38.2 191.987 38.32C191.987 38.44 191.957 38.5 191.897 38.5C191.377 38.5 190.787 38.49 190.127 38.47C189.467 38.45 188.747 38.44 187.967 38.44C187.227 38.44 186.527 38.45 185.867 38.47C185.207 38.49 184.607 38.5 184.067 38.5C184.027 38.5 184.007 38.44 184.007 38.32C184.007 38.2 184.027 38.14 184.067 38.14C184.887 38.14 185.507 38.09 185.927 37.99C186.367 37.89 186.657 37.69 186.797 37.39C186.937 37.09 187.007 36.65 187.007 36.07V22.18C187.007 21.58 186.937 21.15 186.797 20.89C186.657 20.61 186.377 20.44 185.957 20.38C185.537 20.32 184.907 20.29 184.067 20.29Z" fill="#F5E6CF"/>
<path d="M203.41 36.07C203.41 36.65 203.47 37.09 203.59 37.39C203.71 37.69 203.95 37.89 204.31 37.99C204.69 38.09 205.24 38.14 205.96 38.14C206.02 38.14 206.05 38.2 206.05 38.32C206.05 38.44 206.02 38.5 205.96 38.5C205.48 38.5 204.94 38.49 204.34 38.47C203.76 38.45 203.11 38.44 202.39 38.44C201.73 38.44 201.09 38.45 200.47 38.47C199.87 38.49 199.33 38.5 198.85 38.5C198.79 38.5 198.76 38.44 198.76 38.32C198.76 38.2 198.79 38.14 198.85 38.14C199.57 38.14 200.12 38.09 200.5 37.99C200.88 37.89 201.13 37.69 201.25 37.39C201.37 37.09 201.43 36.65 201.43 36.07V22.18C201.43 21.6 201.37 21.17 201.25 20.89C201.13 20.59 200.88 20.39 200.5 20.29C200.12 20.17 199.57 20.11 198.85 20.11C198.79 20.11 198.76 20.05 198.76 19.93C198.76 19.81 198.79 19.75 198.85 19.75C199.33 19.75 199.87 19.77 200.47 19.81C201.09 19.83 201.73 19.84 202.39 19.84C203.11 19.84 203.77 19.83 204.37 19.81C204.97 19.77 205.5 19.75 205.96 19.75C206.02 19.75 206.05 19.81 206.05 19.93C206.05 20.05 206.02 20.11 205.96 20.11C205.24 20.11 204.69 20.17 204.31 20.29C203.95 20.41 203.71 20.62 203.59 20.92C203.47 21.22 203.41 21.66 203.41 22.24V36.07Z" fill="#F5E6CF"/>
<path d="M224.021 38.5C223.681 38.5 223.131 38.12 222.371 37.36C221.631 36.58 220.721 35.47 219.641 34.03C218.581 32.57 217.391 30.85 216.071 28.87L217.751 28.36C219.451 30.78 220.891 32.71 222.071 34.15C223.271 35.57 224.321 36.59 225.221 37.21C226.141 37.83 227.021 38.14 227.861 38.14C227.921 38.14 227.951 38.2 227.951 38.32C227.951 38.44 227.921 38.5 227.861 38.5C226.861 38.5 226.041 38.5 225.401 38.5C224.781 38.5 224.321 38.5 224.021 38.5ZM216.461 19.66C218.061 19.66 219.281 20.03 220.121 20.77C220.981 21.49 221.411 22.44 221.411 23.62C221.411 24.7 221.091 25.68 220.451 26.56C219.831 27.42 219.001 28.1 217.961 28.6C216.941 29.1 215.821 29.35 214.601 29.35C214.401 29.35 214.171 29.34 213.911 29.32C213.671 29.3 213.451 29.28 213.251 29.26V36.07C213.251 36.65 213.301 37.09 213.401 37.39C213.521 37.69 213.761 37.89 214.121 37.99C214.501 38.09 215.061 38.14 215.801 38.14C215.861 38.14 215.891 38.2 215.891 38.32C215.891 38.44 215.861 38.5 215.801 38.5C215.321 38.5 214.781 38.49 214.181 38.47C213.601 38.45 212.961 38.44 212.261 38.44C211.601 38.44 210.961 38.45 210.341 38.47C209.741 38.49 209.191 38.5 208.691 38.5C208.651 38.5 208.631 38.44 208.631 38.32C208.631 38.2 208.651 38.14 208.691 38.14C209.431 38.14 209.981 38.09 210.341 37.99C210.721 37.89 210.981 37.69 211.121 37.39C211.261 37.09 211.331 36.65 211.331 36.07V22.18C211.331 21.6 211.261 21.17 211.121 20.89C211.001 20.59 210.761 20.39 210.401 20.29C210.041 20.17 209.491 20.11 208.751 20.11C208.691 20.11 208.661 20.05 208.661 19.93C208.661 19.81 208.691 19.75 208.751 19.75C209.231 19.75 209.771 19.77 210.371 19.81C210.971 19.83 211.601 19.84 212.261 19.84C212.881 19.84 213.591 19.81 214.391 19.75C215.211 19.69 215.901 19.66 216.461 19.66ZM219.371 24.49C219.371 23.39 219.201 22.52 218.861 21.88C218.541 21.24 218.081 20.79 217.481 20.53C216.881 20.25 216.161 20.11 215.321 20.11C214.581 20.11 214.051 20.24 213.731 20.5C213.411 20.76 213.251 21.34 213.251 22.24V28.54C213.531 28.58 213.831 28.61 214.151 28.63C214.471 28.65 214.761 28.66 215.021 28.66C216.641 28.66 217.771 28.31 218.411 27.61C219.051 26.89 219.371 25.85 219.371 24.49Z" fill="#F5E6CF"/>
<path d="M245.548 19.75C245.608 19.75 245.638 19.81 245.638 19.93C245.638 20.05 245.608 20.11 245.548 20.11C244.908 20.11 244.328 20.28 243.808 20.62C243.308 20.96 242.878 21.58 242.518 22.48L236.128 38.47C236.108 38.55 235.998 38.59 235.798 38.59C235.618 38.59 235.508 38.55 235.468 38.47L227.998 22.24C227.658 21.48 227.298 20.94 226.918 20.62C226.558 20.28 226.068 20.11 225.448 20.11C225.388 20.11 225.358 20.05 225.358 19.93C225.358 19.81 225.388 19.75 225.448 19.75C225.728 19.75 225.998 19.76 226.258 19.78C226.518 19.8 226.788 19.82 227.068 19.84C227.348 19.84 227.638 19.84 227.938 19.84C228.538 19.84 229.068 19.84 229.528 19.84C229.988 19.82 230.398 19.8 230.758 19.78C231.118 19.76 231.448 19.75 231.748 19.75C231.808 19.75 231.838 19.81 231.838 19.93C231.838 20.05 231.808 20.11 231.748 20.11C230.968 20.11 230.418 20.26 230.098 20.56C229.798 20.86 229.818 21.38 230.158 22.12L236.638 36.31L235.708 37.69L241.828 22.3C242.128 21.56 242.128 21.01 241.828 20.65C241.528 20.29 240.828 20.11 239.728 20.11C239.668 20.11 239.638 20.05 239.638 19.93C239.638 19.81 239.668 19.75 239.728 19.75C240.228 19.75 240.698 19.77 241.138 19.81C241.578 19.83 242.158 19.84 242.878 19.84C243.458 19.84 243.918 19.83 244.258 19.81C244.618 19.77 245.048 19.75 245.548 19.75Z" fill="#F5E6CF"/>
<path d="M259.318 38.5H246.748C246.708 38.5 246.688 38.44 246.688 38.32C246.688 38.2 246.708 38.14 246.748 38.14C247.488 38.14 248.038 38.09 248.398 37.99C248.758 37.89 248.998 37.69 249.118 37.39C249.258 37.09 249.328 36.65 249.328 36.07V22.18C249.328 21.6 249.258 21.17 249.118 20.89C248.998 20.59 248.758 20.39 248.398 20.29C248.038 20.17 247.488 20.11 246.748 20.11C246.708 20.11 246.688 20.05 246.688 19.93C246.688 19.81 246.708 19.75 246.748 19.75H258.808C258.988 19.75 259.078 19.84 259.078 20.02L259.138 23.71C259.138 23.77 259.078 23.81 258.958 23.83C258.858 23.83 258.808 23.8 258.808 23.74C258.748 22.66 258.418 21.83 257.818 21.25C257.238 20.67 256.478 20.38 255.538 20.38H253.708C253.028 20.38 252.508 20.43 252.148 20.53C251.808 20.63 251.568 20.82 251.428 21.1C251.308 21.38 251.248 21.79 251.248 22.33V35.95C251.248 36.47 251.308 36.87 251.428 37.15C251.568 37.43 251.798 37.62 252.118 37.72C252.458 37.82 252.958 37.87 253.618 37.87H256.018C256.978 37.87 257.778 37.53 258.418 36.85C259.078 36.15 259.508 35.21 259.708 34.03C259.708 33.97 259.768 33.95 259.888 33.97C260.008 33.99 260.068 34.03 260.068 34.09C259.988 34.61 259.918 35.24 259.858 35.98C259.818 36.72 259.798 37.41 259.798 38.05C259.798 38.35 259.638 38.5 259.318 38.5ZM257.638 31.51C257.638 30.63 257.418 30 256.978 29.62C256.558 29.24 255.848 29.05 254.848 29.05H250.348V28.42H254.938C255.898 28.42 256.578 28.26 256.978 27.94C257.398 27.6 257.608 27.06 257.608 26.32C257.608 26.28 257.668 26.26 257.788 26.26C257.908 26.26 257.968 26.28 257.968 26.32C257.968 26.92 257.958 27.39 257.938 27.73C257.938 28.05 257.938 28.39 257.938 28.75C257.938 29.21 257.948 29.66 257.968 30.1C257.988 30.54 257.998 31.01 257.998 31.51C257.998 31.55 257.938 31.57 257.818 31.57C257.698 31.57 257.638 31.55 257.638 31.51Z" fill="#F5E6CF"/>
<path d="M270.661 38.62C270.081 38.62 269.361 38.59 268.501 38.53C267.661 38.47 266.881 38.44 266.161 38.44C265.501 38.44 264.861 38.45 264.241 38.47C263.641 38.49 263.101 38.5 262.621 38.5C262.581 38.5 262.561 38.44 262.561 38.32C262.561 38.2 262.581 38.14 262.621 38.14C263.341 38.14 263.891 38.09 264.271 37.99C264.651 37.89 264.901 37.69 265.021 37.39C265.141 37.09 265.201 36.65 265.201 36.07V22.18C265.201 21.6 265.141 21.17 265.021 20.89C264.901 20.59 264.651 20.39 264.271 20.29C263.911 20.17 263.371 20.11 262.651 20.11C262.611 20.11 262.591 20.05 262.591 19.93C262.591 19.81 262.611 19.75 262.651 19.75C263.131 19.75 263.671 19.77 264.271 19.81C264.871 19.83 265.501 19.84 266.161 19.84C266.821 19.84 267.531 19.82 268.291 19.78C269.051 19.72 269.701 19.69 270.241 19.69C272.361 19.69 274.211 20.09 275.791 20.89C277.391 21.69 278.631 22.78 279.511 24.16C280.391 25.54 280.831 27.09 280.831 28.81C280.831 30.31 280.561 31.67 280.021 32.89C279.501 34.09 278.761 35.12 277.801 35.98C276.861 36.82 275.771 37.47 274.531 37.93C273.311 38.39 272.021 38.62 270.661 38.62ZM270.361 38.17C271.961 38.17 273.371 37.84 274.591 37.18C275.811 36.5 276.771 35.51 277.471 34.21C278.191 32.91 278.551 31.33 278.551 29.47C278.551 27.73 278.221 26.16 277.561 24.76C276.901 23.34 275.971 22.22 274.771 21.4C273.591 20.56 272.171 20.14 270.511 20.14C269.311 20.14 268.451 20.26 267.931 20.5C267.411 20.74 267.151 21.32 267.151 22.24V35.74C267.151 36.58 267.351 37.2 267.751 37.6C268.171 37.98 269.041 38.17 270.361 38.17Z" fill="#F5E6CF"/>
<path d="M287.782 30.25L288.082 29.65H296.032L296.242 30.25H287.782ZM302.932 38.14C303.012 38.14 303.052 38.2 303.052 38.32C303.052 38.44 303.012 38.5 302.932 38.5C302.352 38.5 301.762 38.48 301.162 38.44C300.562 38.4 299.982 38.38 299.422 38.38C298.802 38.38 298.262 38.4 297.802 38.44C297.342 38.48 296.832 38.5 296.272 38.5C296.192 38.5 296.152 38.44 296.152 38.32C296.152 38.2 296.192 38.14 296.272 38.14C297.332 38.14 297.992 37.99 298.252 37.69C298.512 37.37 298.442 36.78 298.042 35.92L291.382 21.85L292.132 20.92L286.312 34.69C285.812 35.91 285.782 36.79 286.222 37.33C286.662 37.87 287.532 38.14 288.832 38.14C288.932 38.14 288.982 38.2 288.982 38.32C288.982 38.44 288.932 38.5 288.832 38.5C288.232 38.5 287.682 38.48 287.182 38.44C286.682 38.4 286.052 38.38 285.292 38.38C284.572 38.38 283.992 38.4 283.552 38.44C283.132 38.48 282.612 38.5 281.992 38.5C281.912 38.5 281.872 38.44 281.872 38.32C281.872 38.2 281.912 38.14 281.992 38.14C282.532 38.14 283.002 38.04 283.402 37.84C283.802 37.62 284.172 37.25 284.512 36.73C284.872 36.19 285.262 35.42 285.682 34.42L292.012 19.48C292.052 19.42 292.122 19.39 292.222 19.39C292.322 19.39 292.382 19.42 292.402 19.48L299.482 34.39C299.942 35.37 300.352 36.14 300.712 36.7C301.072 37.24 301.422 37.62 301.762 37.84C302.122 38.04 302.512 38.14 302.932 38.14Z" fill="#F5E6CF"/>
<defs>
<linearGradient id="paint0_linear_37_368" x1="1.5" y1="6.25" x2="42.3162" y2="91.7696" gradientUnits="userSpaceOnUse">
<stop stop-color="#F9D77A"/>
<stop offset="0.5" stop-color="#F18C3A"/>
<stop offset="1" stop-color="#B56020"/>
</linearGradient>
</defs>
</svg>
